<mxfile host="app.diagrams.net" modified="2024-10-10T09:00:13.796Z" agent="Mozilla/5.0 (Windows NT 10.0; Win64; x64) AppleWebKit/537.36 (KHTML, like Gecko) Chrome/129.0.0.0 Safari/537.36" etag="g_DykKof2h_PI8HP7SI_" version="24.5.2" type="device">
  <diagram name="Page-1" id="e3a06f82-3646-2815-327d-82caf3d4e204">
    <mxGraphModel dx="2049" dy="1066" grid="1" gridSize="10" guides="1" tooltips="1" connect="1" arrows="1" fold="1" page="1" pageScale="1.5" pageWidth="1169" pageHeight="826" background="none" math="0" shadow="0">
      <root>
        <mxCell id="0" style=";html=1;" />
        <mxCell id="1" style=";html=1;" parent="0" />
        <mxCell id="6a7d8f32e03d9370-58" value="產線" style="whiteSpace=wrap;html=1;fillColor=#dae8fc;fontSize=14;strokeColor=none;verticalAlign=top;opacity=50;movable=0;resizable=0;rotatable=0;deletable=0;editable=0;locked=1;connectable=0;" parent="1" vertex="1">
          <mxGeometry x="121" y="130" width="1520" height="1061" as="geometry" />
        </mxCell>
        <mxCell id="6a7d8f32e03d9370-35" style="edgeStyle=none;rounded=0;html=1;jettySize=auto;orthogonalLoop=1;fontSize=14;endArrow=classic;endFill=1;strokeWidth=2;dashed=1;" parent="1" source="6a7d8f32e03d9370-2" target="Hu_b00svysjQHtUaSuko-6" edge="1">
          <mxGeometry relative="1" as="geometry">
            <mxPoint x="547" y="352.1951219512198" as="targetPoint" />
          </mxGeometry>
        </mxCell>
        <mxCell id="6a7d8f32e03d9370-2" value="晶圓機台筆電" style="verticalLabelPosition=bottom;aspect=fixed;html=1;verticalAlign=top;strokeColor=none;shape=mxgraph.citrix.laptop_2;fillColor=#66B2FF;gradientColor=#0066CC;fontSize=14;" parent="1" vertex="1">
          <mxGeometry x="239.9999999999999" y="313.5" width="116" height="86.5" as="geometry" />
        </mxCell>
        <mxCell id="6a7d8f32e03d9370-62" value="參數比對專案架構" style="text;strokeColor=none;fillColor=none;html=1;fontSize=24;fontStyle=1;verticalAlign=middle;align=center;" parent="1" vertex="1">
          <mxGeometry x="499" y="30" width="861" height="40" as="geometry" />
        </mxCell>
        <mxCell id="Hu_b00svysjQHtUaSuko-1" style="edgeStyle=none;rounded=0;html=1;startSize=10;endSize=10;jettySize=auto;orthogonalLoop=1;fontSize=14;endArrow=classic;endFill=1;strokeWidth=2;dashed=1;" parent="1" source="Hu_b00svysjQHtUaSuko-2" target="Hu_b00svysjQHtUaSuko-6" edge="1">
          <mxGeometry relative="1" as="geometry">
            <mxPoint x="820" y="363.5" as="targetPoint" />
          </mxGeometry>
        </mxCell>
        <mxCell id="Hu_b00svysjQHtUaSuko-2" value="晶圓機台筆電" style="verticalLabelPosition=bottom;aspect=fixed;html=1;verticalAlign=top;strokeColor=none;shape=mxgraph.citrix.laptop_2;fillColor=#66B2FF;gradientColor=#0066CC;fontSize=14;" parent="1" vertex="1">
          <mxGeometry x="239.9999999999999" y="463.5" width="116" height="86.5" as="geometry" />
        </mxCell>
        <mxCell id="Hu_b00svysjQHtUaSuko-3" style="edgeStyle=none;rounded=0;html=1;startSize=10;endSize=10;jettySize=auto;orthogonalLoop=1;fontSize=14;endArrow=classic;endFill=1;strokeWidth=2;dashed=1;" parent="1" source="Hu_b00svysjQHtUaSuko-4" target="Hu_b00svysjQHtUaSuko-6" edge="1">
          <mxGeometry relative="1" as="geometry">
            <mxPoint x="547" y="649.1951219512198" as="targetPoint" />
          </mxGeometry>
        </mxCell>
        <mxCell id="Hu_b00svysjQHtUaSuko-4" value="晶圓機台筆電" style="verticalLabelPosition=bottom;aspect=fixed;html=1;verticalAlign=top;strokeColor=none;shape=mxgraph.citrix.laptop_2;fillColor=#66B2FF;gradientColor=#0066CC;fontSize=14;" parent="1" vertex="1">
          <mxGeometry x="239.9999999999999" y="610.5" width="116" height="86.5" as="geometry" />
        </mxCell>
        <mxCell id="Hu_b00svysjQHtUaSuko-5" value="安裝USB偵測&lt;br&gt;環境需求：nodejs&amp;nbsp;&lt;span style=&quot;background-color: initial;&quot;&gt;4.9.1 32位元&lt;/span&gt;" style="rounded=0;whiteSpace=wrap;html=1;" parent="1" vertex="1">
          <mxGeometry x="240" y="230" width="282" height="50" as="geometry" />
        </mxCell>
        <mxCell id="Hu_b00svysjQHtUaSuko-9" style="edgeStyle=orthogonalEdgeStyle;rounded=0;orthogonalLoop=1;jettySize=auto;html=1;startArrow=classic;startFill=1;" parent="1" source="Hu_b00svysjQHtUaSuko-6" target="Hu_b00svysjQHtUaSuko-8" edge="1">
          <mxGeometry relative="1" as="geometry" />
        </mxCell>
        <mxCell id="Hu_b00svysjQHtUaSuko-6" value="IT 主機" style="verticalLabelPosition=bottom;sketch=0;aspect=fixed;html=1;verticalAlign=top;strokeColor=none;align=center;outlineConnect=0;shape=mxgraph.citrix.desktop;" parent="1" vertex="1">
          <mxGeometry x="832" y="384.5" width="89" height="98" as="geometry" />
        </mxCell>
        <mxCell id="Hu_b00svysjQHtUaSuko-8" value="QNX 主機" style="verticalLabelPosition=bottom;sketch=0;aspect=fixed;html=1;verticalAlign=top;strokeColor=none;align=center;outlineConnect=0;shape=mxgraph.citrix.desktop;" parent="1" vertex="1">
          <mxGeometry x="1350" y="384.5" width="89" height="98" as="geometry" />
        </mxCell>
        <mxCell id="Hu_b00svysjQHtUaSuko-35" style="edgeStyle=orthogonalEdgeStyle;rounded=0;orthogonalLoop=1;jettySize=auto;html=1;dashed=1;dashPattern=1 4;endArrow=none;endFill=0;" parent="1" source="Hu_b00svysjQHtUaSuko-10" target="Hu_b00svysjQHtUaSuko-6" edge="1">
          <mxGeometry relative="1" as="geometry" />
        </mxCell>
        <mxCell id="Hu_b00svysjQHtUaSuko-10" value="安裝IT主程式&lt;br&gt;環境需求：具IE的Win7、nodejs&lt;span style=&quot;background-color: initial;&quot;&gt;&amp;nbsp;13.14 64位元、OCR程式&lt;/span&gt;" style="rounded=0;whiteSpace=wrap;html=1;" parent="1" vertex="1">
          <mxGeometry x="736" y="230" width="281" height="70" as="geometry" />
        </mxCell>
        <mxCell id="Hu_b00svysjQHtUaSuko-36" style="edgeStyle=orthogonalEdgeStyle;rounded=0;orthogonalLoop=1;jettySize=auto;html=1;dashed=1;dashPattern=1 4;endArrow=none;endFill=0;" parent="1" source="Hu_b00svysjQHtUaSuko-11" edge="1">
          <mxGeometry relative="1" as="geometry">
            <mxPoint x="1381" y="380" as="targetPoint" />
          </mxGeometry>
        </mxCell>
        <mxCell id="Hu_b00svysjQHtUaSuko-11" value="安裝QNX主程式&lt;br&gt;環境需求：nodejs&lt;span style=&quot;background-color: initial;&quot;&gt;&amp;nbsp;13.14 64位元、ffftp、phindows、以機台名稱命名的網路介面&lt;/span&gt;" style="rounded=0;whiteSpace=wrap;html=1;" parent="1" vertex="1">
          <mxGeometry x="1240" y="230" width="282" height="70" as="geometry" />
        </mxCell>
        <mxCell id="Hu_b00svysjQHtUaSuko-12" style="edgeStyle=orthogonalEdgeStyle;rounded=0;orthogonalLoop=1;jettySize=auto;html=1;exitX=0.5;exitY=1;exitDx=0;exitDy=0;" parent="1" source="Hu_b00svysjQHtUaSuko-11" target="Hu_b00svysjQHtUaSuko-11" edge="1">
          <mxGeometry relative="1" as="geometry" />
        </mxCell>
        <mxCell id="Hu_b00svysjQHtUaSuko-32" style="edgeStyle=orthogonalEdgeStyle;rounded=0;orthogonalLoop=1;jettySize=auto;html=1;" parent="1" source="Hu_b00svysjQHtUaSuko-23" target="Hu_b00svysjQHtUaSuko-6" edge="1">
          <mxGeometry relative="1" as="geometry" />
        </mxCell>
        <mxCell id="Hu_b00svysjQHtUaSuko-23" value="網路硬碟（listenRecipeTxtFileDrive）" style="verticalLabelPosition=bottom;sketch=0;aspect=fixed;html=1;verticalAlign=top;strokeColor=none;align=center;outlineConnect=0;shape=mxgraph.citrix.geolocation_database;" parent="1" vertex="1">
          <mxGeometry x="850.5" y="648" width="53" height="49" as="geometry" />
        </mxCell>
        <mxCell id="Hu_b00svysjQHtUaSuko-31" style="edgeStyle=orthogonalEdgeStyle;rounded=0;orthogonalLoop=1;jettySize=auto;html=1;" parent="1" source="Hu_b00svysjQHtUaSuko-28" target="Hu_b00svysjQHtUaSuko-23" edge="1">
          <mxGeometry relative="1" as="geometry" />
        </mxCell>
        <mxCell id="Hu_b00svysjQHtUaSuko-28" value="產線IT" style="verticalLabelPosition=bottom;sketch=0;aspect=fixed;html=1;verticalAlign=top;strokeColor=none;align=center;outlineConnect=0;shape=mxgraph.citrix.home_office;" parent="1" vertex="1">
          <mxGeometry x="837" y="900" width="80" height="55.5" as="geometry" />
        </mxCell>
        <mxCell id="Hu_b00svysjQHtUaSuko-33" style="edgeStyle=orthogonalEdgeStyle;rounded=0;orthogonalLoop=1;jettySize=auto;html=1;entryX=1.034;entryY=0.272;entryDx=0;entryDy=0;entryPerimeter=0;dashed=1;dashPattern=1 4;endArrow=none;endFill=0;" parent="1" source="Hu_b00svysjQHtUaSuko-5" target="6a7d8f32e03d9370-2" edge="1">
          <mxGeometry relative="1" as="geometry" />
        </mxCell>
      </root>
    </mxGraphModel>
  </diagram>
</mxfile>
